<svg xmlns="http://www.w3.org/2000/svg" width="180.865" height="181.477"><path fill="#0094C8" d="M78.785 147.091c-22.372-4.618-39.966-22.302-44.464-44.712l-20.537-3.114c3.803 35.901 32.259 64.452 68.116 68.396l-3.115-20.57zM13.861 82.199l20.594-3.121c4.689-22.079 22.117-39.45 44.234-44.056l3.115-20.582c-35.603 3.963-63.885 32.182-67.943 67.759zm85.201-67.752l3.114 20.575c22.11 4.605 39.545 21.977 44.234 44.056l20.594 3.121c-4.058-35.57-32.335-63.79-67.942-67.752zm47.482 87.932c-4.498 22.417-22.092 40.094-44.463 44.712l-3.115 20.569c35.863-3.943 64.312-32.494 68.114-68.396l-20.536 3.115z"/><path fill="#0094C8" d="M167.476 88.709l-20.054-3.038-37.455-5.676 16.689-25.168-25.365 16.823-5.702-37.609-3.039-20.046L90.429 0l-2.121 13.995-3.038 20.046-5.695 37.603-25.366-16.817 16.689 25.168-37.456 5.676-20.052 3.038L0 90.735l13.371 2.027 20.021 3.031 37.883 5.738-17.066 25.737 25.455-16.881 5.707 37.672 3.039 20.046 2.026 13.372 2.025-13.372 3.039-20.046 5.701-37.672 25.455 16.881-17.066-25.737 37.884-5.738 20.02-3.031 13.371-2.027-13.389-2.026z"/><path fill="#0094C8" d="M100.52 93.162a10.383 10.383 0 0 1-7.657 7.658c-.776.183-1.592.285-2.426.285-.835 0-1.65-.103-2.434-.285a10.38 10.38 0 0 1-7.65-7.652 10.43 10.43 0 0 1-.153-4.09 10.37 10.37 0 0 1 11.893-8.574 10.361 10.361 0 0 1 8.715 10.237 10.17 10.17 0 0 1-.288 2.421z"/></svg>